<svg id="Camada_1" data-name="Camada 1" xmlns="http://www.w3.org/2000/svg" viewBox="0 0 1441.82 265.53"><defs><style>.cls-1{fill:#cc6d66;}.cls-2{fill:#8297b0;}.cls-3{fill:#173880;}</style></defs><path class="cls-1" d="M29.09,621.14a4.07,4.07,0,0,1,4.12-3.9h5.43l90.3,95.94h.22V623.53a4.12,4.12,0,0,1,4.13-4.12h20a4.26,4.26,0,0,1,4.12,4.12V769.62a4.08,4.08,0,0,1-4.12,3.91h-5.21L57.31,673.89h-.22v93.34A4.12,4.12,0,0,1,53,771.36H33.21a4.26,4.26,0,0,1-4.12-4.13Z" transform="translate(-29.09 -617.24)"/><path class="cls-1" d="M329.09,617.24a78.15,78.15,0,1,1-77.93,78.36C251.16,652.19,285.68,617.24,329.09,617.24Zm0,128.07C356.44,745.31,379,723,379,695.6s-22.58-50.14-49.93-50.14-49.71,22.79-49.71,50.14A49.84,49.84,0,0,0,329.09,745.31Z" transform="translate(-29.09 -617.24)"/><path class="cls-1" d="M486.26,624.62c-.87-3,.86-5.21,3.9-5.21h20a4.45,4.45,0,0,1,3.91,3l22.58,86.61h.86L572,619.62a3.5,3.5,0,0,1,3.69-2.38h3.91a3.51,3.51,0,0,1,3.69,2.38L618,709.06h.87L641,622.45a4.45,4.45,0,0,1,3.91-3h20c3,0,4.77,2.17,3.91,5.21l-41,145.87a4.17,4.17,0,0,1-3.91,3h-3.47a3.68,3.68,0,0,1-3.69-2.39l-38.86-98.33h-1.08l-38.43,98.33a3.69,3.69,0,0,1-3.69,2.39h-3.47a4.17,4.17,0,0,1-3.91-3Z" transform="translate(-29.09 -617.24)"/><path class="cls-2" d="M829.67,617.24c21.92,0,37.77,7.59,52.53,20.18a4.21,4.21,0,0,1,.22,6.08l-5.86,5.86c-1.74,2.17-3.48,2-5.65-.21-11.29-9.77-26.7-16.28-41.46-16.28-34.3,0-60.56,28.87-60.56,62.51,0,33.43,26.26,62.3,60.56,62.3,18.89,0,30-7.59,41.46-16.28,2.17-1.73,3.91-1.52,5.21-.65l6.51,5.86c1.74,1.31,1.31,4.34-.21,5.86-14.76,14.33-33.43,21.06-52.75,21.06-43.42,0-78.36-34.51-78.36-77.93A78.18,78.18,0,0,1,829.67,617.24Z" transform="translate(-29.09 -617.24)"/><path class="cls-2" d="M981,623.53a4.12,4.12,0,0,1,4.12-4.12h8.47a4.26,4.26,0,0,1,4.12,4.12V756.82h62.52a4.12,4.12,0,0,1,4.13,4.12v6.29a4.12,4.12,0,0,1-4.13,4.13H985.09a4.12,4.12,0,0,1-4.12-4.13Z" transform="translate(-29.09 -617.24)"/><path class="cls-2" d="M1147.47,623.53a4.26,4.26,0,0,1,4.12-4.12h8.25a4.12,4.12,0,0,1,4.13,4.12v90.52c0,24.75,15.41,44.07,40.81,44.07,25.61,0,41.24-18.89,41.24-43.63v-91a4.12,4.12,0,0,1,4.12-4.12h8.25a4.27,4.27,0,0,1,4.13,4.12v91.82c0,33-23.45,58.18-57.74,58.18-34.08,0-57.31-25.18-57.31-58.18Z" transform="translate(-29.09 -617.24)"/><path class="cls-2" d="M1370,623.53a4.12,4.12,0,0,1,4.12-4.12h47.54c26.49,0,44.5,17.15,44.5,39.94,0,16.71-11.07,28.87-21.27,34.73,11.5,4.78,26.05,15.41,26.05,35.38,0,24.32-19.32,41.9-47.32,41.9h-49.5a4.12,4.12,0,0,1-4.12-4.13Zm55.35,133.29c15.85,0,27.35-11.94,27.35-27.57,0-15.41-14.11-26.7-31-26.7h-35.81v54.27Zm-3.69-69.25c16.72,0,26-11.94,26-27.14,0-15.62-9.33-26-26-26h-35.38v53.18Z" transform="translate(-29.09 -617.24)"/><path class="cls-3" d="M37.38,854.34a.78.78,0,0,1,.78-.78h9c5,0,8.43,3.25,8.43,7.57a7.77,7.77,0,0,1-4,6.58c2.18.9,4.94,2.92,4.94,6.7,0,4.61-3.66,7.94-9,7.94H38.16a.78.78,0,0,1-.78-.78ZM47.87,879.6a5.08,5.08,0,0,0,5.18-5.23c0-2.92-2.67-5.06-5.88-5.06H40.38V879.6Zm-.7-13.12c3.17,0,4.93-2.27,4.93-5.14a4.55,4.55,0,0,0-4.93-4.94h-6.7v10.08Z" transform="translate(-29.09 -617.24)"/><path class="cls-3" d="M79.53,854.34a.78.78,0,0,1,.78-.78H91a8.84,8.84,0,0,1,9,8.76,9.18,9.18,0,0,1-6.09,8.39l5.63,10.45a.78.78,0,0,1-.7,1.19H96.68A.7.7,0,0,1,96,882l-5.47-10.9H82.69v10.49a.81.81,0,0,1-.78.78h-1.6a.78.78,0,0,1-.78-.78Zm11.22,14a5.91,5.91,0,1,0,0-11.81h-8v11.81Z" transform="translate(-29.09 -617.24)"/><path class="cls-3" d="M123.15,854.34a.81.81,0,0,1,.78-.78h1.65a.81.81,0,0,1,.78.78v27.23a.81.81,0,0,1-.78.78h-1.65a.81.81,0,0,1-.78-.78Z" transform="translate(-29.09 -617.24)"/><path class="cls-3" d="M163.94,853.15a14.46,14.46,0,0,1,10,3.83.79.79,0,0,1,0,1.15c-.37.37-.83.78-1.15,1.15s-.62.37-1.07,0A12.51,12.51,0,0,0,163.9,856a11.59,11.59,0,0,0-11.43,11.8c0,6.34,4.93,11.89,11.43,11.89a15.41,15.41,0,0,0,7.4-1.73v-5.76h-4.73a.74.74,0,0,1-.78-.74V870a.76.76,0,0,1,.78-.78h7.12a.77.77,0,0,1,.74.78v9.42a1,1,0,0,1-.33.66,20.3,20.3,0,0,1-10.16,2.71,14.81,14.81,0,1,1,0-29.61Z" transform="translate(-29.09 -617.24)"/><path class="cls-3" d="M197.74,854.34a.81.81,0,0,1,.78-.78h1.6a.78.78,0,0,1,.78.78v12h16.7v-12a.78.78,0,0,1,.78-.78H220a.81.81,0,0,1,.78.78v27.23a.81.81,0,0,1-.78.78h-1.61a.78.78,0,0,1-.78-.78V869.11H200.9v12.46a.78.78,0,0,1-.78.78h-1.6a.81.81,0,0,1-.78-.78Z" transform="translate(-29.09 -617.24)"/><path class="cls-3" d="M249.67,856.32h-7.16a.78.78,0,0,1-.78-.78v-1.2a.78.78,0,0,1,.78-.78H260a.78.78,0,0,1,.78.78v1.2a.78.78,0,0,1-.78.78h-7.16v25.25a.81.81,0,0,1-.78.78h-1.56a.81.81,0,0,1-.78-.78Z" transform="translate(-29.09 -617.24)"/><path class="cls-3" d="M281.7,853.89a.77.77,0,0,1,.78-.74h1l18.55,23.11h.08V854.34a.78.78,0,0,1,.78-.78h1.44a.81.81,0,0,1,.78.78V882a.77.77,0,0,1-.78.74h-.74L284.74,859.2h0v22.37a.78.78,0,0,1-.78.78h-1.44a.81.81,0,0,1-.78-.78Z" transform="translate(-29.09 -617.24)"/><path class="cls-3" d="M330,854.34a.78.78,0,0,1,.78-.78H347a.78.78,0,0,1,.79.78v1.2a.78.78,0,0,1-.79.78H333.13v10h11.81a.81.81,0,0,1,.78.78v1.2a.78.78,0,0,1-.78.78H333.13V879.6H347a.78.78,0,0,1,.79.78v1.19a.78.78,0,0,1-.79.78h-16.2a.78.78,0,0,1-.78-.78Z" transform="translate(-29.09 -617.24)"/><path class="cls-3" d="M368.9,878c.21-.24.42-.53.62-.78.41-.53.87-.86,1.44-.37.29.25,3.29,3.13,7,3.13,3.33,0,5.51-2.1,5.51-4.53,0-2.83-2.46-4.52-7.19-6.5-4.53-2-7.24-3.82-7.24-8.51,0-2.8,2.22-7.32,8.76-7.32a13.43,13.43,0,0,1,7,2.1.92.92,0,0,1,.25,1.4c-.17.24-.33.53-.5.78a.93.93,0,0,1-1.44.37,11.37,11.37,0,0,0-5.38-1.89c-4.36,0-5.68,2.79-5.68,4.52,0,2.76,2.1,4.36,5.55,5.8,5.56,2.26,9.13,4.36,9.13,9.13,0,4.28-4.07,7.4-8.88,7.4a13.41,13.41,0,0,1-8.68-3.33A.91.91,0,0,1,368.9,878Z" transform="translate(-29.09 -617.24)"/><path class="cls-3" d="M407.27,878c.2-.24.41-.53.61-.78.42-.53.87-.86,1.44-.37.29.25,3.29,3.13,6.95,3.13,3.33,0,5.52-2.1,5.52-4.53,0-2.83-2.47-4.52-7.2-6.5-4.53-2-7.24-3.82-7.24-8.51,0-2.8,2.22-7.32,8.76-7.32a13.43,13.43,0,0,1,7,2.1.92.92,0,0,1,.25,1.4c-.16.24-.33.53-.49.78a.94.94,0,0,1-1.44.37,11.47,11.47,0,0,0-5.39-1.89c-4.36,0-5.68,2.79-5.68,4.52,0,2.76,2.1,4.36,5.55,5.8,5.56,2.26,9.14,4.36,9.14,9.13,0,4.28-4.08,7.4-8.89,7.4a13.41,13.41,0,0,1-8.68-3.33A.9.9,0,0,1,407.27,878Z" transform="translate(-29.09 -617.24)"/><path class="cls-3" d="M469.1,881.28l12.51-27.68a.75.75,0,0,1,.7-.45h.41a.76.76,0,0,1,.7.45l12.42,27.68a.72.72,0,0,1-.7,1.07h-1.65a.73.73,0,0,1-.69-.45l-3.05-6.79h-14.6l-3,6.79a.75.75,0,0,1-.7.45H469.8A.73.73,0,0,1,469.1,881.28Zm19.54-8.72c-2-4.48-4-9-6-13.49h-.33l-6,13.49Z" transform="translate(-29.09 -617.24)"/><path class="cls-3" d="M516.76,854.34a.81.81,0,0,1,.78-.78h1.6a.78.78,0,0,1,.79.78v12h16.69v-12a.78.78,0,0,1,.79-.78H539a.81.81,0,0,1,.78.78v27.23a.81.81,0,0,1-.78.78h-1.6a.78.78,0,0,1-.79-.78V869.11H519.93v12.46a.78.78,0,0,1-.79.78h-1.6a.81.81,0,0,1-.78-.78Z" transform="translate(-29.09 -617.24)"/><path class="cls-3" d="M564.62,854.34a.78.78,0,0,1,.78-.78h16.21a.78.78,0,0,1,.78.78v1.2a.78.78,0,0,1-.78.78H567.79v10h11.8a.81.81,0,0,1,.78.78v1.2a.78.78,0,0,1-.78.78h-11.8V879.6h13.82a.78.78,0,0,1,.78.78v1.19a.78.78,0,0,1-.78.78H565.4a.78.78,0,0,1-.78-.78Z" transform="translate(-29.09 -617.24)"/><path class="cls-3" d="M601.46,881.28,614,853.6a.76.76,0,0,1,.7-.45h.41a.75.75,0,0,1,.7.45l12.42,27.68a.72.72,0,0,1-.7,1.07h-1.64a.75.75,0,0,1-.7-.45l-3-6.79h-14.6l-3,6.79a.75.75,0,0,1-.7.45h-1.64A.72.72,0,0,1,601.46,881.28ZM621,872.56c-2-4.48-4-9-6-13.49h-.33l-6,13.49Z" transform="translate(-29.09 -617.24)"/><path class="cls-3" d="M649.12,854.34a.77.77,0,0,1,.73-.78h9.22a14.4,14.4,0,1,1,0,28.79h-9.22a.77.77,0,0,1-.73-.78Zm9.29,25.17a11.58,11.58,0,1,0,0-23.15h-6.17v23.15Z" transform="translate(-29.09 -617.24)"/></svg>